<svg xmlns="http://www.w3.org/2000/svg" width="40" height="40" fill="none"><g clip-path="url(#a)"><path fill="url(#b)" d="M2.5 2.722C-.643 5.987 0 9.455 0 19.992c0 8.75-1.527 17.521 6.463 19.586 2.495.642 24.602.642 27.093-.003 3.327-.858 6.034-3.557 6.404-8.262.051-.656.051-21.975-.002-22.645-.393-5.011-3.478-7.9-7.543-8.485C31.483.048 31.297.008 26.517 0 9.562.008 5.845-.747 2.5 2.722Z"/><path fill="#fff" d="M19.997 5.232c-6.052 0-11.799-.539-13.994 5.094-.906 2.327-.775 5.349-.775 9.675 0 3.797-.121 7.365.775 9.674 2.19 5.637 7.984 5.097 13.99 5.097 5.795 0 11.77.603 13.992-5.097.908-2.35.775-5.327.775-9.674 0-5.77.318-9.495-2.48-12.291-2.833-2.833-6.665-2.478-12.29-2.478h.007Zm-1.324 2.661c12.624-.02 14.23-1.423 13.344 18.072-.315 6.895-5.565 6.138-12.019 6.138-11.766 0-12.105-.337-12.105-12.108 0-11.908.934-12.095 10.78-12.105v.003Zm9.207 2.452a1.772 1.772 0 1 0 0 3.544 1.772 1.772 0 0 0 0-3.544Zm-7.883 2.071a7.585 7.585 0 0 0 0 15.169A7.582 7.582 0 0 0 27.578 20a7.583 7.583 0 0 0-7.581-7.585Zm0 2.662c6.508 0 6.516 9.847 0 9.847-6.507 0-6.517-9.847 0-9.847Z"/></g><defs><linearGradient id="b" x1="2.577" x2="39.752" y1="37.445" y2="5.27" gradientUnits="userSpaceOnUse"><stop stop-color="#FD5"/><stop offset=".5" stop-color="#FF543E"/><stop offset="1" stop-color="#C837AB"/></linearGradient><clipPath id="a"><path fill="#fff" d="M0 0h40v40H0z"/></clipPath></defs></svg>