<svg xmlns="http://www.w3.org/2000/svg" width="90" height="14" fill="none"><path fill="#FFA800" d="M12.817 5.597a.346.346 0 0 0-.276-.244l-3.617-.551-1.617-3.436a.34.34 0 0 0-.307-.2.34.34 0 0 0-.306.2L5.076 4.802l-3.617.55a.347.347 0 0 0-.276.245.37.37 0 0 0 .087.367l2.617 2.674-.618 3.776c-.022.135.03.27.136.35a.331.331 0 0 0 .36.028L7 11.009l3.235 1.783a.328.328 0 0 0 .36-.027.367.367 0 0 0 .136-.35l-.618-3.777 2.617-2.674a.37.37 0 0 0 .087-.367ZM31.817 5.597a.346.346 0 0 0-.276-.244l-3.617-.551-1.617-3.436a.34.34 0 0 0-.307-.2.34.34 0 0 0-.306.2l-1.618 3.436-3.617.55a.347.347 0 0 0-.276.245.37.37 0 0 0 .087.367l2.617 2.674-.618 3.776c-.022.135.03.27.136.35a.331.331 0 0 0 .36.028L26 11.009l3.235 1.783a.328.328 0 0 0 .36-.027.367.367 0 0 0 .136-.35l-.618-3.777 2.617-2.674a.37.37 0 0 0 .087-.367ZM50.817 5.597a.346.346 0 0 0-.276-.244l-3.617-.551-1.617-3.436a.34.34 0 0 0-.307-.2.34.34 0 0 0-.306.2l-1.618 3.436-3.617.55a.347.347 0 0 0-.276.245.37.37 0 0 0 .087.367l2.617 2.674-.618 3.776c-.022.135.03.27.136.35a.331.331 0 0 0 .36.028L45 11.009l3.235 1.783a.328.328 0 0 0 .36-.027.367.367 0 0 0 .136-.35l-.618-3.777 2.617-2.674a.37.37 0 0 0 .087-.367ZM69.817 5.597a.346.346 0 0 0-.276-.244l-3.617-.551-1.618-3.436a.34.34 0 0 0-.306-.2.34.34 0 0 0-.306.2l-1.618 3.436-3.617.55a.347.347 0 0 0-.276.245.37.37 0 0 0 .087.367l2.617 2.674-.618 3.776c-.022.135.03.27.136.35a.331.331 0 0 0 .36.028L64 11.009l3.235 1.783a.328.328 0 0 0 .36-.027.367.367 0 0 0 .136-.35l-.618-3.777 2.617-2.674a.37.37 0 0 0 .087-.367ZM88.817 5.597a.346.346 0 0 0-.276-.244l-3.617-.551-1.618-3.436a.34.34 0 0 0-.306-.2.34.34 0 0 0-.306.2l-1.618 3.436-3.617.55a.347.347 0 0 0-.276.245.37.37 0 0 0 .087.367l2.617 2.674-.618 3.776c-.022.135.03.27.136.35a.331.331 0 0 0 .36.028L83 11.009l3.235 1.783a.328.328 0 0 0 .36-.027.367.367 0 0 0 .136-.35l-.618-3.777 2.617-2.674a.37.37 0 0 0 .087-.367Z"/></svg>