<svg xmlns="http://www.w3.org/2000/svg" width="40" height="40" fill="none"><path fill="#1EA5DD" d="M29.945 0H10.024C4.504 0 0 4.508 0 10.032V30c0 5.492 4.504 10 10.024 10h19.952C35.496 40 40 35.492 40 29.968V10.032C39.968 4.508 35.464 0 29.945 0Zm-.032 14.984v.667c0 6.666-5.139 14.349-14.56 14.349-2.887 0-5.583-.825-7.835-2.254.412.032.793.064 1.205.064 2.411 0 4.6-.794 6.344-2.16a5.111 5.111 0 0 1-4.79-3.491c.318.063.635.095.952.095.476 0 .952-.064 1.364-.19-2.284-.477-4.028-2.508-4.028-4.953v-.063c.634.38 1.459.603 2.284.635a5.022 5.022 0 0 1-2.284-4.19c0-.922.253-1.779.697-2.54a14.65 14.65 0 0 0 10.532 5.27 4.68 4.68 0 0 1-.127-1.144c0-2.793 2.284-5.047 5.107-5.047 1.46 0 2.791.603 3.743 1.587a9.52 9.52 0 0 0 3.236-1.238c-.381 1.175-1.206 2.159-2.253 2.794 1.047-.127 2.03-.381 2.95-.794a10.42 10.42 0 0 1-2.537 2.603Z"/></svg>